<mxfile host="Electron" modified="2023-06-04T22:55:42.572Z" agent="Mozilla/5.0 (X11; Linux x86_64) AppleWebKit/537.36 (KHTML, like Gecko) draw.io/21.2.8 Chrome/112.0.5615.165 Electron/24.2.0 Safari/537.36" etag="LEM0b5OTepgjbaI-idgs" version="21.2.8" type="device">
  <diagram id="C5RBs43oDa-KdzZeNtuy" name="Page-1">
    <mxGraphModel dx="496" dy="822" grid="1" gridSize="10" guides="1" tooltips="1" connect="1" arrows="1" fold="1" page="1" pageScale="1" pageWidth="827" pageHeight="1169" math="0" shadow="0">
      <root>
        <mxCell id="WIyWlLk6GJQsqaUBKTNV-0" />
        <mxCell id="WIyWlLk6GJQsqaUBKTNV-1" parent="WIyWlLk6GJQsqaUBKTNV-0" />
        <mxCell id="v3p_S5XGQSFm1o8agEWo-2" value="" style="edgeStyle=orthogonalEdgeStyle;rounded=0;orthogonalLoop=1;jettySize=auto;html=1;" edge="1" parent="WIyWlLk6GJQsqaUBKTNV-1" source="v3p_S5XGQSFm1o8agEWo-0" target="v3p_S5XGQSFm1o8agEWo-1">
          <mxGeometry relative="1" as="geometry" />
        </mxCell>
        <mxCell id="v3p_S5XGQSFm1o8agEWo-0" value="sumar( x:int, y:int ) -&amp;gt; int:" style="rounded=0;whiteSpace=wrap;html=1;fillColor=#fff2cc;strokeColor=#d6b656;" vertex="1" parent="WIyWlLk6GJQsqaUBKTNV-1">
          <mxGeometry x="210" y="105" width="240" height="120" as="geometry" />
        </mxCell>
        <mxCell id="v3p_S5XGQSFm1o8agEWo-4" value="" style="edgeStyle=orthogonalEdgeStyle;rounded=0;orthogonalLoop=1;jettySize=auto;html=1;" edge="1" parent="WIyWlLk6GJQsqaUBKTNV-1" source="v3p_S5XGQSFm1o8agEWo-1" target="v3p_S5XGQSFm1o8agEWo-3">
          <mxGeometry relative="1" as="geometry" />
        </mxCell>
        <mxCell id="v3p_S5XGQSFm1o8agEWo-1" value="sumando:int = 0" style="whiteSpace=wrap;html=1;rounded=0;fillColor=#d5e8d4;strokeColor=#82b366;" vertex="1" parent="WIyWlLk6GJQsqaUBKTNV-1">
          <mxGeometry x="270" y="335" width="120" height="60" as="geometry" />
        </mxCell>
        <mxCell id="v3p_S5XGQSFm1o8agEWo-6" value="" style="edgeStyle=orthogonalEdgeStyle;rounded=0;orthogonalLoop=1;jettySize=auto;html=1;" edge="1" parent="WIyWlLk6GJQsqaUBKTNV-1" source="v3p_S5XGQSFm1o8agEWo-3" target="v3p_S5XGQSFm1o8agEWo-5">
          <mxGeometry relative="1" as="geometry" />
        </mxCell>
        <mxCell id="v3p_S5XGQSFm1o8agEWo-3" value="abs_y:int = 0" style="whiteSpace=wrap;html=1;rounded=0;fillColor=#d5e8d4;strokeColor=#82b366;" vertex="1" parent="WIyWlLk6GJQsqaUBKTNV-1">
          <mxGeometry x="270" y="475" width="120" height="60" as="geometry" />
        </mxCell>
        <mxCell id="v3p_S5XGQSFm1o8agEWo-8" value="TRUE" style="edgeStyle=orthogonalEdgeStyle;rounded=0;orthogonalLoop=1;jettySize=auto;html=1;" edge="1" parent="WIyWlLk6GJQsqaUBKTNV-1" source="v3p_S5XGQSFm1o8agEWo-5" target="v3p_S5XGQSFm1o8agEWo-7">
          <mxGeometry relative="1" as="geometry" />
        </mxCell>
        <mxCell id="v3p_S5XGQSFm1o8agEWo-12" value="FALSE" style="edgeStyle=orthogonalEdgeStyle;rounded=0;orthogonalLoop=1;jettySize=auto;html=1;" edge="1" parent="WIyWlLk6GJQsqaUBKTNV-1" source="v3p_S5XGQSFm1o8agEWo-5" target="v3p_S5XGQSFm1o8agEWo-11">
          <mxGeometry relative="1" as="geometry" />
        </mxCell>
        <mxCell id="v3p_S5XGQSFm1o8agEWo-5" value="if y&amp;lt;0" style="whiteSpace=wrap;html=1;rounded=0;fillColor=#d5e8d4;strokeColor=#82b366;" vertex="1" parent="WIyWlLk6GJQsqaUBKTNV-1">
          <mxGeometry x="270" y="615" width="120" height="60" as="geometry" />
        </mxCell>
        <mxCell id="v3p_S5XGQSFm1o8agEWo-10" value="" style="edgeStyle=orthogonalEdgeStyle;rounded=0;orthogonalLoop=1;jettySize=auto;html=1;" edge="1" parent="WIyWlLk6GJQsqaUBKTNV-1" source="v3p_S5XGQSFm1o8agEWo-7" target="v3p_S5XGQSFm1o8agEWo-9">
          <mxGeometry relative="1" as="geometry" />
        </mxCell>
        <mxCell id="v3p_S5XGQSFm1o8agEWo-7" value="sumando = -1" style="whiteSpace=wrap;html=1;rounded=0;fillColor=#d5e8d4;strokeColor=#82b366;" vertex="1" parent="WIyWlLk6GJQsqaUBKTNV-1">
          <mxGeometry x="70" y="615" width="120" height="60" as="geometry" />
        </mxCell>
        <mxCell id="v3p_S5XGQSFm1o8agEWo-16" value="" style="edgeStyle=orthogonalEdgeStyle;rounded=0;orthogonalLoop=1;jettySize=auto;html=1;" edge="1" parent="WIyWlLk6GJQsqaUBKTNV-1" source="v3p_S5XGQSFm1o8agEWo-9" target="v3p_S5XGQSFm1o8agEWo-15">
          <mxGeometry relative="1" as="geometry" />
        </mxCell>
        <mxCell id="v3p_S5XGQSFm1o8agEWo-9" value="abs_y = -y" style="whiteSpace=wrap;html=1;rounded=0;fillColor=#d5e8d4;strokeColor=#82b366;" vertex="1" parent="WIyWlLk6GJQsqaUBKTNV-1">
          <mxGeometry x="70" y="755" width="120" height="60" as="geometry" />
        </mxCell>
        <mxCell id="v3p_S5XGQSFm1o8agEWo-14" value="" style="edgeStyle=orthogonalEdgeStyle;rounded=0;orthogonalLoop=1;jettySize=auto;html=1;" edge="1" parent="WIyWlLk6GJQsqaUBKTNV-1" source="v3p_S5XGQSFm1o8agEWo-11" target="v3p_S5XGQSFm1o8agEWo-13">
          <mxGeometry relative="1" as="geometry" />
        </mxCell>
        <mxCell id="v3p_S5XGQSFm1o8agEWo-11" value="sumando = 1" style="whiteSpace=wrap;html=1;rounded=0;fillColor=#d5e8d4;strokeColor=#82b366;" vertex="1" parent="WIyWlLk6GJQsqaUBKTNV-1">
          <mxGeometry x="470" y="615" width="120" height="60" as="geometry" />
        </mxCell>
        <mxCell id="v3p_S5XGQSFm1o8agEWo-17" style="edgeStyle=orthogonalEdgeStyle;rounded=0;orthogonalLoop=1;jettySize=auto;html=1;entryX=0.5;entryY=0;entryDx=0;entryDy=0;" edge="1" parent="WIyWlLk6GJQsqaUBKTNV-1" source="v3p_S5XGQSFm1o8agEWo-13" target="v3p_S5XGQSFm1o8agEWo-15">
          <mxGeometry relative="1" as="geometry" />
        </mxCell>
        <mxCell id="v3p_S5XGQSFm1o8agEWo-13" value="abs_y = y" style="whiteSpace=wrap;html=1;rounded=0;fillColor=#d5e8d4;strokeColor=#82b366;" vertex="1" parent="WIyWlLk6GJQsqaUBKTNV-1">
          <mxGeometry x="470" y="755" width="120" height="60" as="geometry" />
        </mxCell>
        <mxCell id="v3p_S5XGQSFm1o8agEWo-19" value="" style="edgeStyle=orthogonalEdgeStyle;rounded=0;orthogonalLoop=1;jettySize=auto;html=1;" edge="1" parent="WIyWlLk6GJQsqaUBKTNV-1" source="v3p_S5XGQSFm1o8agEWo-15" target="v3p_S5XGQSFm1o8agEWo-18">
          <mxGeometry relative="1" as="geometry" />
        </mxCell>
        <mxCell id="v3p_S5XGQSFm1o8agEWo-15" value="result:int = x" style="whiteSpace=wrap;html=1;rounded=0;fillColor=#d5e8d4;strokeColor=#82b366;" vertex="1" parent="WIyWlLk6GJQsqaUBKTNV-1">
          <mxGeometry x="270" y="870" width="120" height="60" as="geometry" />
        </mxCell>
        <mxCell id="v3p_S5XGQSFm1o8agEWo-21" value="" style="edgeStyle=orthogonalEdgeStyle;rounded=0;orthogonalLoop=1;jettySize=auto;html=1;" edge="1" parent="WIyWlLk6GJQsqaUBKTNV-1" source="v3p_S5XGQSFm1o8agEWo-18" target="v3p_S5XGQSFm1o8agEWo-20">
          <mxGeometry relative="1" as="geometry" />
        </mxCell>
        <mxCell id="v3p_S5XGQSFm1o8agEWo-18" value="count:int = 0" style="whiteSpace=wrap;html=1;rounded=0;fillColor=#d5e8d4;strokeColor=#82b366;" vertex="1" parent="WIyWlLk6GJQsqaUBKTNV-1">
          <mxGeometry x="270" y="1010" width="120" height="60" as="geometry" />
        </mxCell>
        <mxCell id="v3p_S5XGQSFm1o8agEWo-23" value="TRUE" style="edgeStyle=orthogonalEdgeStyle;rounded=0;orthogonalLoop=1;jettySize=auto;html=1;" edge="1" parent="WIyWlLk6GJQsqaUBKTNV-1" source="v3p_S5XGQSFm1o8agEWo-20" target="v3p_S5XGQSFm1o8agEWo-22">
          <mxGeometry relative="1" as="geometry" />
        </mxCell>
        <mxCell id="v3p_S5XGQSFm1o8agEWo-25" value="FALSE" style="edgeStyle=orthogonalEdgeStyle;rounded=0;orthogonalLoop=1;jettySize=auto;html=1;" edge="1" parent="WIyWlLk6GJQsqaUBKTNV-1" source="v3p_S5XGQSFm1o8agEWo-20" target="v3p_S5XGQSFm1o8agEWo-24">
          <mxGeometry relative="1" as="geometry" />
        </mxCell>
        <mxCell id="v3p_S5XGQSFm1o8agEWo-20" value="while (count &amp;lt; abs_y)" style="whiteSpace=wrap;html=1;rounded=0;fillColor=#d5e8d4;strokeColor=#82b366;" vertex="1" parent="WIyWlLk6GJQsqaUBKTNV-1">
          <mxGeometry x="270" y="1150" width="120" height="60" as="geometry" />
        </mxCell>
        <mxCell id="v3p_S5XGQSFm1o8agEWo-27" value="" style="edgeStyle=orthogonalEdgeStyle;rounded=0;orthogonalLoop=1;jettySize=auto;html=1;" edge="1" parent="WIyWlLk6GJQsqaUBKTNV-1" source="v3p_S5XGQSFm1o8agEWo-22" target="v3p_S5XGQSFm1o8agEWo-26">
          <mxGeometry relative="1" as="geometry" />
        </mxCell>
        <mxCell id="v3p_S5XGQSFm1o8agEWo-22" value="result = result + sumando" style="whiteSpace=wrap;html=1;rounded=0;fillColor=#d5e8d4;strokeColor=#82b366;" vertex="1" parent="WIyWlLk6GJQsqaUBKTNV-1">
          <mxGeometry x="70" y="1150" width="120" height="60" as="geometry" />
        </mxCell>
        <mxCell id="v3p_S5XGQSFm1o8agEWo-24" value="return result" style="whiteSpace=wrap;html=1;rounded=0;fillColor=#d5e8d4;strokeColor=#82b366;" vertex="1" parent="WIyWlLk6GJQsqaUBKTNV-1">
          <mxGeometry x="470" y="1150" width="120" height="60" as="geometry" />
        </mxCell>
        <mxCell id="v3p_S5XGQSFm1o8agEWo-28" style="edgeStyle=orthogonalEdgeStyle;rounded=0;orthogonalLoop=1;jettySize=auto;html=1;exitX=1;exitY=0.5;exitDx=0;exitDy=0;entryX=0.5;entryY=1;entryDx=0;entryDy=0;" edge="1" parent="WIyWlLk6GJQsqaUBKTNV-1" source="v3p_S5XGQSFm1o8agEWo-26" target="v3p_S5XGQSFm1o8agEWo-20">
          <mxGeometry relative="1" as="geometry" />
        </mxCell>
        <mxCell id="v3p_S5XGQSFm1o8agEWo-26" value="count = count +1" style="whiteSpace=wrap;html=1;rounded=0;fillColor=#d5e8d4;strokeColor=#82b366;" vertex="1" parent="WIyWlLk6GJQsqaUBKTNV-1">
          <mxGeometry x="70" y="1290" width="120" height="60" as="geometry" />
        </mxCell>
        <mxCell id="v3p_S5XGQSFm1o8agEWo-29" value="&lt;h1&gt;Ejercicio 2&lt;/h1&gt;&lt;div&gt;&lt;br&gt;&lt;/div&gt;" style="text;html=1;strokeColor=none;fillColor=none;spacing=5;spacingTop=-20;whiteSpace=wrap;overflow=hidden;rounded=0;" vertex="1" parent="WIyWlLk6GJQsqaUBKTNV-1">
          <mxGeometry x="490" y="100" width="300" height="190" as="geometry" />
        </mxCell>
        <mxCell id="v3p_S5XGQSFm1o8agEWo-30" value="" style="shape=table;startSize=0;container=1;collapsible=0;childLayout=tableLayout;" vertex="1" parent="WIyWlLk6GJQsqaUBKTNV-1">
          <mxGeometry x="496" y="150" width="240" height="112" as="geometry" />
        </mxCell>
        <mxCell id="v3p_S5XGQSFm1o8agEWo-31" value="" style="shape=tableRow;horizontal=0;startSize=0;swimlaneHead=0;swimlaneBody=0;strokeColor=inherit;top=0;left=0;bottom=0;right=0;collapsible=0;dropTarget=0;fillColor=none;points=[[0,0.5],[1,0.5]];portConstraint=eastwest;" vertex="1" parent="v3p_S5XGQSFm1o8agEWo-30">
          <mxGeometry width="240" height="32" as="geometry" />
        </mxCell>
        <mxCell id="v3p_S5XGQSFm1o8agEWo-32" value="" style="shape=partialRectangle;html=1;whiteSpace=wrap;connectable=0;strokeColor=#666666;overflow=hidden;fillColor=#f5f5f5;top=0;left=0;bottom=0;right=0;pointerEvents=1;fontColor=#333333;" vertex="1" parent="v3p_S5XGQSFm1o8agEWo-31">
          <mxGeometry width="60" height="32" as="geometry">
            <mxRectangle width="60" height="32" as="alternateBounds" />
          </mxGeometry>
        </mxCell>
        <mxCell id="v3p_S5XGQSFm1o8agEWo-33" value="X" style="shape=partialRectangle;html=1;whiteSpace=wrap;connectable=0;strokeColor=#82b366;overflow=hidden;fillColor=#d5e8d4;top=0;left=0;bottom=0;right=0;pointerEvents=1;" vertex="1" parent="v3p_S5XGQSFm1o8agEWo-31">
          <mxGeometry x="60" width="60" height="32" as="geometry">
            <mxRectangle width="60" height="32" as="alternateBounds" />
          </mxGeometry>
        </mxCell>
        <mxCell id="v3p_S5XGQSFm1o8agEWo-34" value="Y" style="shape=partialRectangle;html=1;whiteSpace=wrap;connectable=0;strokeColor=#82b366;overflow=hidden;fillColor=#d5e8d4;top=0;left=0;bottom=0;right=0;pointerEvents=1;" vertex="1" parent="v3p_S5XGQSFm1o8agEWo-31">
          <mxGeometry x="120" width="60" height="32" as="geometry">
            <mxRectangle width="60" height="32" as="alternateBounds" />
          </mxGeometry>
        </mxCell>
        <mxCell id="v3p_S5XGQSFm1o8agEWo-35" value="res" style="shape=partialRectangle;html=1;whiteSpace=wrap;connectable=0;strokeColor=#82b366;overflow=hidden;fillColor=#d5e8d4;top=0;left=0;bottom=0;right=0;pointerEvents=1;" vertex="1" parent="v3p_S5XGQSFm1o8agEWo-31">
          <mxGeometry x="180" width="60" height="32" as="geometry">
            <mxRectangle width="60" height="32" as="alternateBounds" />
          </mxGeometry>
        </mxCell>
        <mxCell id="v3p_S5XGQSFm1o8agEWo-36" value="" style="shape=tableRow;horizontal=0;startSize=0;swimlaneHead=0;swimlaneBody=0;strokeColor=inherit;top=0;left=0;bottom=0;right=0;collapsible=0;dropTarget=0;fillColor=none;points=[[0,0.5],[1,0.5]];portConstraint=eastwest;" vertex="1" parent="v3p_S5XGQSFm1o8agEWo-30">
          <mxGeometry y="32" width="240" height="40" as="geometry" />
        </mxCell>
        <mxCell id="v3p_S5XGQSFm1o8agEWo-37" value="test 1" style="shape=partialRectangle;html=1;whiteSpace=wrap;connectable=0;strokeColor=#82b366;overflow=hidden;fillColor=#d5e8d4;top=0;left=0;bottom=0;right=0;pointerEvents=1;" vertex="1" parent="v3p_S5XGQSFm1o8agEWo-36">
          <mxGeometry width="60" height="40" as="geometry">
            <mxRectangle width="60" height="40" as="alternateBounds" />
          </mxGeometry>
        </mxCell>
        <mxCell id="v3p_S5XGQSFm1o8agEWo-38" value="2" style="shape=partialRectangle;html=1;whiteSpace=wrap;connectable=0;strokeColor=#d6b656;overflow=hidden;fillColor=#fff2cc;top=0;left=0;bottom=0;right=0;pointerEvents=1;" vertex="1" parent="v3p_S5XGQSFm1o8agEWo-36">
          <mxGeometry x="60" width="60" height="40" as="geometry">
            <mxRectangle width="60" height="40" as="alternateBounds" />
          </mxGeometry>
        </mxCell>
        <mxCell id="v3p_S5XGQSFm1o8agEWo-39" value="3" style="shape=partialRectangle;html=1;whiteSpace=wrap;connectable=0;strokeColor=#d6b656;overflow=hidden;fillColor=#fff2cc;top=0;left=0;bottom=0;right=0;pointerEvents=1;" vertex="1" parent="v3p_S5XGQSFm1o8agEWo-36">
          <mxGeometry x="120" width="60" height="40" as="geometry">
            <mxRectangle width="60" height="40" as="alternateBounds" />
          </mxGeometry>
        </mxCell>
        <mxCell id="v3p_S5XGQSFm1o8agEWo-40" value="5" style="shape=partialRectangle;html=1;whiteSpace=wrap;connectable=0;strokeColor=#d6b656;overflow=hidden;fillColor=#fff2cc;top=0;left=0;bottom=0;right=0;pointerEvents=1;" vertex="1" parent="v3p_S5XGQSFm1o8agEWo-36">
          <mxGeometry x="180" width="60" height="40" as="geometry">
            <mxRectangle width="60" height="40" as="alternateBounds" />
          </mxGeometry>
        </mxCell>
        <mxCell id="v3p_S5XGQSFm1o8agEWo-41" value="" style="shape=tableRow;horizontal=0;startSize=0;swimlaneHead=0;swimlaneBody=0;strokeColor=inherit;top=0;left=0;bottom=0;right=0;collapsible=0;dropTarget=0;fillColor=none;points=[[0,0.5],[1,0.5]];portConstraint=eastwest;" vertex="1" parent="v3p_S5XGQSFm1o8agEWo-30">
          <mxGeometry y="72" width="240" height="40" as="geometry" />
        </mxCell>
        <mxCell id="v3p_S5XGQSFm1o8agEWo-42" value="test 2" style="shape=partialRectangle;html=1;whiteSpace=wrap;connectable=0;strokeColor=#82b366;overflow=hidden;fillColor=#d5e8d4;top=0;left=0;bottom=0;right=0;pointerEvents=1;" vertex="1" parent="v3p_S5XGQSFm1o8agEWo-41">
          <mxGeometry width="60" height="40" as="geometry">
            <mxRectangle width="60" height="40" as="alternateBounds" />
          </mxGeometry>
        </mxCell>
        <mxCell id="v3p_S5XGQSFm1o8agEWo-43" value="2" style="shape=partialRectangle;html=1;whiteSpace=wrap;connectable=0;strokeColor=#d6b656;overflow=hidden;fillColor=#fff2cc;top=0;left=0;bottom=0;right=0;pointerEvents=1;" vertex="1" parent="v3p_S5XGQSFm1o8agEWo-41">
          <mxGeometry x="60" width="60" height="40" as="geometry">
            <mxRectangle width="60" height="40" as="alternateBounds" />
          </mxGeometry>
        </mxCell>
        <mxCell id="v3p_S5XGQSFm1o8agEWo-44" value="-3" style="shape=partialRectangle;html=1;whiteSpace=wrap;connectable=0;strokeColor=#d6b656;overflow=hidden;fillColor=#fff2cc;top=0;left=0;bottom=0;right=0;pointerEvents=1;" vertex="1" parent="v3p_S5XGQSFm1o8agEWo-41">
          <mxGeometry x="120" width="60" height="40" as="geometry">
            <mxRectangle width="60" height="40" as="alternateBounds" />
          </mxGeometry>
        </mxCell>
        <mxCell id="v3p_S5XGQSFm1o8agEWo-45" value="-1" style="shape=partialRectangle;html=1;whiteSpace=wrap;connectable=0;strokeColor=#d6b656;overflow=hidden;fillColor=#fff2cc;top=0;left=0;bottom=0;right=0;pointerEvents=1;" vertex="1" parent="v3p_S5XGQSFm1o8agEWo-41">
          <mxGeometry x="180" width="60" height="40" as="geometry">
            <mxRectangle width="60" height="40" as="alternateBounds" />
          </mxGeometry>
        </mxCell>
        <mxCell id="v3p_S5XGQSFm1o8agEWo-47" value="&lt;h1&gt;Ejercicio 3&lt;br&gt;&lt;/h1&gt;&lt;div&gt;El test suite del anterior ejercicio ya revisa las dos posibles branches. Son dos y se diferencian en el if.&lt;/div&gt;&lt;div&gt;&lt;br&gt;&lt;/div&gt;" style="text;html=1;strokeColor=none;fillColor=none;spacing=5;spacingTop=-20;whiteSpace=wrap;overflow=hidden;rounded=0;" vertex="1" parent="WIyWlLk6GJQsqaUBKTNV-1">
          <mxGeometry x="490" y="290" width="250" height="150" as="geometry" />
        </mxCell>
      </root>
    </mxGraphModel>
  </diagram>
</mxfile>
